# xmcd
#
# Track frame offsets: 
#        150
#        25210
#        74520
#        100057
#        122165
#        168205
#        192132
#        231782
#        275412
#        313257
#
# Disc length: 4695 seconds
#
# Revision: 0
# Processed by: cddbd v1.5.2PL0 Copyright (c) Steve Scherf et al.
# Submitted via: ExactAudioCopy v0.95b4
#
DISCID=8712550a
DTITLE=Eric Clapton - An Evening of the Blues [CD2]
DYEAR=1991
DGENRE=Blues
TTITLE0=Tired Man
TTITLE1=Mother In Law Blues
TTITLE2=Black Cat Bone
TTITLE3=I Feel So Good
TTITLE4=Reconsider Baby
TTITLE5=Stranger Blues
TTITLE6=Hoochie Coochie Man
TTITLE7=Little by Little
TTITLE8=My Time After A While
TTITLE9=Sweet Home Chicago
EXTD=
EXTT0=
EXTT1=
EXTT2=
EXTT3=
EXTT4=
EXTT5=
EXTT6=
EXTT7=
EXTT8=
EXTT9=
PLAYORDER=
